M48
; DRILL file KiCad 10.0.4 date 2026-07-13T15:55:33
; FORMAT={-:-/ absolute / metric / decimal}
; #@! TF.CreationDate,2026-07-13T15:55:33+09:00
; #@! TF.GenerationSoftware,Kicad,Pcbnew,10.0.4
; #@! TF.FileFunction,Plated,1,2,PTH
FMAT,2
METRIC
; #@! TA.AperFunction,Plated,PTH,ViaDrill
T1C0.200
; #@! TA.AperFunction,Plated,PTH,ViaDrill
T2C0.300
; #@! TA.AperFunction,Plated,PTH,ViaDrill
T3C0.500
; #@! TA.AperFunction,Plated,PTH,ComponentDrill
T4C0.780
; #@! TA.AperFunction,Plated,PTH,ComponentDrill
T5C0.800
; #@! TA.AperFunction,Plated,PTH,ComponentDrill
T6C1.000
%
G90
G05
T1
X94.5Y-114.0
X97.9Y-103.6
X144.5Y-114.0
X150.0Y-89.5
X153.0Y-99.5
T2
X94.6Y-91.0
X107.395Y-113.745
X113.7Y-101.0
X115.5Y-106.4
X127.0Y-110.5
X143.5Y-87.469
X149.797Y-88.76
X151.025Y-105.5
X152.208Y-88.732
X154.053Y-107.903
X154.575Y-94.107
X154.64Y-105.763
X155.842Y-90.073
X156.609Y-89.374
X157.713Y-92.977
X159.5Y-89.5
T3
X87.6Y-110.4
X132.1Y-105.4
T4
X140.81Y-111.76
X140.81Y-114.3
X140.81Y-116.84
X140.81Y-119.38
X140.81Y-121.92
X140.81Y-124.46
X140.81Y-127.0
X140.81Y-129.54
X148.75Y-111.76
X148.75Y-114.3
X148.75Y-116.84
X148.75Y-119.38
X148.75Y-121.92
X148.75Y-124.46
X148.75Y-127.0
X148.75Y-129.54
T5
X88.9Y-128.12
X88.9Y-130.66
X88.94Y-112.88
X88.94Y-115.42
X88.94Y-117.96
X88.94Y-120.5
X88.94Y-123.04
X88.94Y-125.58
X91.44Y-125.58
X91.44Y-128.12
X91.44Y-130.66
X91.48Y-112.88
X91.48Y-115.42
X91.48Y-117.96
X91.48Y-120.5
X91.48Y-123.04
X93.98Y-112.88
X93.98Y-115.42
X93.98Y-117.96
X93.98Y-120.5
X93.98Y-123.04
X93.98Y-125.58
X93.98Y-128.12
X93.98Y-130.66
X106.68Y-116.84
X106.68Y-119.38
X106.68Y-121.92
X106.68Y-124.46
X114.3Y-116.84
X114.3Y-119.38
X114.3Y-121.92
X114.3Y-124.46
X127.0Y-115.57
X127.0Y-118.11
X127.0Y-120.65
X127.0Y-123.19
X127.0Y-125.73
X127.0Y-128.27
X157.48Y-127.0
X157.48Y-129.54
X157.52Y-111.76
X157.52Y-114.3
X157.52Y-116.84
X157.52Y-119.38
X157.52Y-121.92
X157.52Y-124.46
X160.02Y-124.46
X160.02Y-127.0
X160.02Y-129.54
X160.06Y-111.76
X160.06Y-114.3
X160.06Y-116.84
X160.06Y-119.38
X160.06Y-121.92
X162.56Y-111.76
X162.56Y-114.3
X162.56Y-116.84
X162.56Y-119.38
X162.56Y-121.92
X162.56Y-124.46
X162.56Y-127.0
X162.56Y-129.54
T6
X88.9Y-82.55
X88.9Y-86.36
X88.9Y-104.14
X88.9Y-107.95
X91.44Y-82.55
X91.44Y-86.36
X91.44Y-104.14
X91.44Y-107.95
X93.98Y-82.55
X93.98Y-86.36
X93.98Y-104.14
X93.98Y-107.95
X96.52Y-82.55
X96.52Y-86.36
X96.52Y-104.14
X96.52Y-107.95
X99.06Y-82.55
X99.06Y-86.36
X99.06Y-104.14
X99.06Y-107.95
X101.6Y-82.55
X101.6Y-86.36
X101.6Y-104.14
X101.6Y-107.95
X104.14Y-82.55
X104.14Y-86.36
X104.14Y-104.14
X104.14Y-107.95
X106.68Y-82.55
X106.68Y-86.36
X106.68Y-104.14
X106.68Y-107.95
X109.22Y-82.55
X109.22Y-86.36
X109.22Y-104.14
X109.22Y-107.95
X111.76Y-82.55
X111.76Y-86.36
X111.76Y-104.14
X111.76Y-107.95
X114.3Y-82.55
X114.3Y-86.36
X114.3Y-104.14
X114.3Y-107.95
X116.84Y-82.55
X116.84Y-86.36
X116.84Y-104.14
X116.84Y-107.95
X119.38Y-82.55
X119.38Y-86.36
X119.38Y-104.14
X119.38Y-107.95
X121.92Y-82.55
X121.92Y-86.36
X121.92Y-104.14
X121.92Y-107.95
X124.46Y-82.55
X124.46Y-86.36
X124.46Y-104.14
X124.46Y-107.95
X127.0Y-82.55
X127.0Y-86.36
X127.0Y-104.14
X127.0Y-107.95
X129.54Y-82.55
X129.54Y-86.36
X129.54Y-104.14
X129.54Y-107.95
X132.08Y-82.55
X132.08Y-86.36
X132.08Y-104.14
X132.08Y-107.95
X134.62Y-82.55
X134.62Y-86.36
X134.62Y-104.14
X134.62Y-107.95
X137.16Y-82.55
X137.16Y-86.36
X137.16Y-104.14
X137.16Y-107.95
X141.46Y-107.5
X144.0Y-107.5
M30
