G04 #@! TF.GenerationSoftware,KiCad,Pcbnew,10.0.4*
G04 #@! TF.CreationDate,2026-07-13T15:55:33+09:00*
G04 #@! TF.ProjectId,____,d2b3eddc-2e6b-4696-9361-645f70636258,rev?*
G04 #@! TF.SameCoordinates,Original*
G04 #@! TF.FileFunction,Soldermask,Top*
G04 #@! TF.FilePolarity,Negative*
%FSLAX46Y46*%
G04 Gerber Fmt 4.6, Leading zero omitted, Abs format (unit mm)*
G04 Created by KiCad (PCBNEW 10.0.4) date 2026-07-13 15:55:33*
%MOMM*%
%LPD*%
G01*
G04 APERTURE LIST*
G04 Aperture macros list*
%AMRoundRect*
0 Rectangle with rounded corners*
0 $1 Rounding radius*
0 $2 $3 $4 $5 $6 $7 $8 $9 X,Y pos of 4 corners*
0 Add a 4 corners polygon primitive as box body*
4,1,4,$2,$3,$4,$5,$6,$7,$8,$9,$2,$3,0*
0 Add four circle primitives for the rounded corners*
1,1,$1+$1,$2,$3*
1,1,$1+$1,$4,$5*
1,1,$1+$1,$6,$7*
1,1,$1+$1,$8,$9*
0 Add four rect primitives between the rounded corners*
20,1,$1+$1,$2,$3,$4,$5,0*
20,1,$1+$1,$4,$5,$6,$7,0*
20,1,$1+$1,$6,$7,$8,$9,0*
20,1,$1+$1,$8,$9,$2,$3,0*%
%AMFreePoly0*
4,1,37,0.800000,0.796148,0.878414,0.796148,1.032228,0.765552,1.177117,0.705537,1.307515,0.618408,1.418408,0.507515,1.505537,0.377117,1.565552,0.232228,1.596148,0.078414,1.596148,-0.078414,1.565552,-0.232228,1.505537,-0.377117,1.418408,-0.507515,1.307515,-0.618408,1.177117,-0.705537,1.032228,-0.765552,0.878414,-0.796148,0.800000,-0.796148,0.800000,-0.800000,-1.400000,-0.800000,
-1.403843,-0.796157,-1.439018,-0.796157,-1.511114,-0.766294,-1.566294,-0.711114,-1.596157,-0.639018,-1.596157,-0.603843,-1.600000,-0.600000,-1.600000,0.600000,-1.596157,0.603843,-1.596157,0.639018,-1.566294,0.711114,-1.511114,0.766294,-1.439018,0.796157,-1.403843,0.796157,-1.400000,0.800000,0.800000,0.800000,0.800000,0.796148,0.800000,0.796148,$1*%
%AMFreePoly1*
4,1,37,0.603843,0.796157,0.639018,0.796157,0.711114,0.766294,0.766294,0.711114,0.796157,0.639018,0.796157,0.603843,0.800000,0.600000,0.800000,-0.600000,0.796157,-0.603843,0.796157,-0.639018,0.766294,-0.711114,0.711114,-0.766294,0.639018,-0.796157,0.603843,-0.796157,0.600000,-0.800000,0.000000,-0.800000,0.000000,-0.796148,-0.078414,-0.796148,-0.232228,-0.765552,-0.377117,-0.705537,
-0.507515,-0.618408,-0.618408,-0.507515,-0.705537,-0.377117,-0.765552,-0.232228,-0.796148,-0.078414,-0.796148,0.078414,-0.765552,0.232228,-0.705537,0.377117,-0.618408,0.507515,-0.507515,0.618408,-0.377117,0.705537,-0.232228,0.765552,-0.078414,0.796148,0.000000,0.796148,0.000000,0.800000,0.600000,0.800000,0.603843,0.796157,0.603843,0.796157,$1*%
%AMFreePoly2*
4,1,37,1.403843,0.796157,1.439018,0.796157,1.511114,0.766294,1.566294,0.711114,1.596157,0.639018,1.596157,0.603843,1.600000,0.600000,1.600000,-0.600000,1.596157,-0.603843,1.596157,-0.639018,1.566294,-0.711114,1.511114,-0.766294,1.439018,-0.796157,1.403843,-0.796157,1.400000,-0.800000,-0.800000,-0.800000,-0.800000,-0.796148,-0.878414,-0.796148,-1.032228,-0.765552,-1.177117,-0.705537,
-1.307515,-0.618408,-1.418408,-0.507515,-1.505537,-0.377117,-1.565552,-0.232228,-1.596148,-0.078414,-1.596148,0.078414,-1.565552,0.232228,-1.505537,0.377117,-1.418408,0.507515,-1.307515,0.618408,-1.177117,0.705537,-1.032228,0.765552,-0.878414,0.796148,-0.800000,0.796148,-0.800000,0.800000,1.400000,0.800000,1.403843,0.796157,1.403843,0.796157,$1*%
%AMFreePoly3*
4,1,37,0.000000,0.796148,0.078414,0.796148,0.232228,0.765552,0.377117,0.705537,0.507515,0.618408,0.618408,0.507515,0.705537,0.377117,0.765552,0.232228,0.796148,0.078414,0.796148,-0.078414,0.765552,-0.232228,0.705537,-0.377117,0.618408,-0.507515,0.507515,-0.618408,0.377117,-0.705537,0.232228,-0.765552,0.078414,-0.796148,0.000000,-0.796148,0.000000,-0.800000,-0.600000,-0.800000,
-0.603843,-0.796157,-0.639018,-0.796157,-0.711114,-0.766294,-0.766294,-0.711114,-0.796157,-0.639018,-0.796157,-0.603843,-0.800000,-0.600000,-0.800000,0.600000,-0.796157,0.603843,-0.796157,0.639018,-0.766294,0.711114,-0.711114,0.766294,-0.639018,0.796157,-0.603843,0.796157,-0.600000,0.800000,0.000000,0.800000,0.000000,0.796148,0.000000,0.796148,$1*%
G04 Aperture macros list end*
%ADD10R,1.090000X1.090000*%
%ADD11C,1.090000*%
%ADD12R,1.700000X1.700000*%
%ADD13C,1.700000*%
%ADD14RoundRect,0.102000X-0.565000X-0.565000X0.565000X-0.565000X0.565000X0.565000X-0.565000X0.565000X0*%
%ADD15C,1.334000*%
%ADD16O,1.998980X2.748280*%
%ADD17O,2.032000X1.016000*%
%ADD18C,1.143000*%
%ADD19RoundRect,0.200000X0.600000X-0.600000X0.600000X0.600000X-0.600000X0.600000X-0.600000X-0.600000X0*%
%ADD20FreePoly0,90.000000*%
%ADD21C,1.600000*%
%ADD22RoundRect,0.800000X0.000010X-0.800000X0.000010X0.800000X-0.000010X0.800000X-0.000010X-0.800000X0*%
%ADD23FreePoly1,90.000000*%
%ADD24FreePoly2,90.000000*%
%ADD25FreePoly3,90.000000*%
G04 APERTURE END LIST*
D10*
G04 #@! TO.C,U1*
X157520000Y-111760000D03*
D11*
X157520000Y-114300000D03*
X157520000Y-116840000D03*
X157520000Y-119380000D03*
X157520000Y-121920000D03*
X157520000Y-124460000D03*
X157480000Y-127000000D03*
X157480000Y-129540000D03*
X160060000Y-111760000D03*
X160060000Y-114300000D03*
X160060000Y-116840000D03*
X160060000Y-119380000D03*
X160060000Y-121920000D03*
X160020000Y-124460000D03*
X160020000Y-127000000D03*
X160020000Y-129540000D03*
X162560000Y-111760000D03*
X162560000Y-114300000D03*
X162560000Y-116840000D03*
X162560000Y-119380000D03*
X162560000Y-121920000D03*
X162560000Y-124460000D03*
X162560000Y-127000000D03*
X162560000Y-129540000D03*
G04 #@! TD*
D12*
G04 #@! TO.C,J1*
X144000000Y-107500000D03*
D13*
X141460000Y-107500000D03*
G04 #@! TD*
D14*
G04 #@! TO.C,U3*
X140810000Y-111760000D03*
D15*
X140810000Y-114300000D03*
X140810000Y-116840000D03*
X140810000Y-119380000D03*
X140810000Y-121920000D03*
X140810000Y-124460000D03*
X140810000Y-127000000D03*
X140810000Y-129540000D03*
X148750000Y-129540000D03*
X148750000Y-127000000D03*
X148750000Y-124460000D03*
X148750000Y-121920000D03*
X148750000Y-119380000D03*
X148750000Y-116840000D03*
X148750000Y-114300000D03*
X148750000Y-111760000D03*
G04 #@! TD*
D16*
G04 #@! TO.C,U4*
X161097820Y-87468720D03*
X158557820Y-87468720D03*
X156017820Y-87468720D03*
X153477820Y-87468720D03*
X150937820Y-87468720D03*
X148397820Y-87468720D03*
X145857820Y-87468720D03*
X145857820Y-103633280D03*
X148397820Y-103633280D03*
X150937820Y-103633280D03*
X153477820Y-103633280D03*
X156017820Y-103633280D03*
X158557820Y-103633280D03*
X161097820Y-103633280D03*
D17*
X144780000Y-94335600D03*
X144780000Y-96885600D03*
D18*
X161784187Y-94334403D03*
X161784187Y-96874403D03*
X159244187Y-94334403D03*
X159244187Y-96874403D03*
G04 #@! TD*
D10*
G04 #@! TO.C,U5*
X127000000Y-115570000D03*
D11*
X127000000Y-118110000D03*
X127000000Y-120650000D03*
X127000000Y-123190000D03*
X127000000Y-125730000D03*
X127000000Y-128270000D03*
G04 #@! TD*
D10*
G04 #@! TO.C,U6*
X114300000Y-124460000D03*
D11*
X114300000Y-121920000D03*
X114300000Y-119380000D03*
X114300000Y-116840000D03*
X106680000Y-116840000D03*
X106680000Y-119380000D03*
X106680000Y-121920000D03*
D10*
X106680000Y-124460000D03*
G04 #@! TD*
D11*
G04 #@! TO.C,U2*
X93980000Y-130660000D03*
X93980000Y-128120000D03*
X93980000Y-125580000D03*
X93980000Y-123040000D03*
X93980000Y-120500000D03*
X93980000Y-117960000D03*
X93980000Y-115420000D03*
X93980000Y-112880000D03*
X91440000Y-130660000D03*
X91440000Y-128120000D03*
X91440000Y-125580000D03*
X91480000Y-123040000D03*
X91480000Y-120500000D03*
X91480000Y-117960000D03*
X91480000Y-115420000D03*
X91480000Y-112880000D03*
X88900000Y-130660000D03*
X88900000Y-128120000D03*
X88940000Y-125580000D03*
X88940000Y-123040000D03*
X88940000Y-120500000D03*
X88940000Y-117960000D03*
X88940000Y-115420000D03*
D10*
X88940000Y-112880000D03*
G04 #@! TD*
D19*
G04 #@! TO.C,A1*
X88900000Y-107950000D03*
D20*
X88900000Y-104940000D03*
D19*
X88900000Y-104140000D03*
D21*
X91440000Y-107950000D03*
D22*
X91440000Y-104940000D03*
D21*
X91440000Y-104140000D03*
D23*
X93980000Y-107950000D03*
D24*
X93980000Y-104940000D03*
D23*
X93980000Y-104140000D03*
D21*
X96520000Y-107950000D03*
D22*
X96520000Y-104940000D03*
D21*
X96520000Y-104140000D03*
X99060000Y-107950000D03*
D22*
X99060000Y-104940000D03*
D21*
X99060000Y-104140000D03*
X101600000Y-107950000D03*
D22*
X101600000Y-104940000D03*
D21*
X101600000Y-104140000D03*
X104140000Y-107950000D03*
D22*
X104140000Y-104940000D03*
D21*
X104140000Y-104140000D03*
D23*
X106680000Y-107950000D03*
D24*
X106680000Y-104940000D03*
D23*
X106680000Y-104140000D03*
D21*
X109220000Y-107950000D03*
D22*
X109220000Y-104940000D03*
D21*
X109220000Y-104140000D03*
X111760000Y-107950000D03*
D22*
X111760000Y-104940000D03*
D21*
X111760000Y-104140000D03*
X114300000Y-107950000D03*
D22*
X114300000Y-104940000D03*
D21*
X114300000Y-104140000D03*
X116840000Y-107950000D03*
D22*
X116840000Y-104940000D03*
D21*
X116840000Y-104140000D03*
D23*
X119380000Y-107950000D03*
D24*
X119380000Y-104940000D03*
D23*
X119380000Y-104140000D03*
D21*
X121920000Y-107950000D03*
D22*
X121920000Y-104940000D03*
D21*
X121920000Y-104140000D03*
X124460000Y-107950000D03*
D22*
X124460000Y-104940000D03*
D21*
X124460000Y-104140000D03*
X127000000Y-107950000D03*
D22*
X127000000Y-104940000D03*
D21*
X127000000Y-104140000D03*
X129540000Y-107950000D03*
D22*
X129540000Y-104940000D03*
D21*
X129540000Y-104140000D03*
D23*
X132080000Y-107950000D03*
D24*
X132080000Y-104940000D03*
D23*
X132080000Y-104140000D03*
D21*
X134620000Y-107950000D03*
D22*
X134620000Y-104940000D03*
D21*
X134620000Y-104140000D03*
X137160000Y-107950000D03*
D22*
X137160000Y-104940000D03*
D21*
X137160000Y-104140000D03*
X137160000Y-86360000D03*
D22*
X137160000Y-85560000D03*
D21*
X137160000Y-82550000D03*
X134620000Y-86360000D03*
D22*
X134620000Y-85560000D03*
D21*
X134620000Y-82550000D03*
D25*
X132080000Y-86360000D03*
D20*
X132080000Y-85560000D03*
D25*
X132080000Y-82550000D03*
D21*
X129540000Y-86360000D03*
D22*
X129540000Y-85560000D03*
D21*
X129540000Y-82550000D03*
X127000000Y-86360000D03*
D22*
X127000000Y-85560000D03*
D21*
X127000000Y-82550000D03*
X124460000Y-86360000D03*
D22*
X124460000Y-85560000D03*
D21*
X124460000Y-82550000D03*
X121920000Y-86360000D03*
D22*
X121920000Y-85560000D03*
D21*
X121920000Y-82550000D03*
D25*
X119380000Y-86360000D03*
D20*
X119380000Y-85560000D03*
D25*
X119380000Y-82550000D03*
D21*
X116840000Y-86360000D03*
D22*
X116840000Y-85560000D03*
D21*
X116840000Y-82550000D03*
X114300000Y-86360000D03*
D22*
X114300000Y-85560000D03*
D21*
X114300000Y-82550000D03*
X111760000Y-86360000D03*
D22*
X111760000Y-85560000D03*
D21*
X111760000Y-82550000D03*
X109220000Y-86360000D03*
D22*
X109220000Y-85560000D03*
D21*
X109220000Y-82550000D03*
D25*
X106680000Y-86360000D03*
D20*
X106680000Y-85560000D03*
D25*
X106680000Y-82550000D03*
D21*
X104140000Y-86360000D03*
D22*
X104140000Y-85560000D03*
D21*
X104140000Y-82550000D03*
X101600000Y-86360000D03*
D22*
X101600000Y-85560000D03*
D21*
X101600000Y-82550000D03*
X99060000Y-86360000D03*
D22*
X99060000Y-85560000D03*
D21*
X99060000Y-82550000D03*
X96520000Y-86360000D03*
D22*
X96520000Y-85560000D03*
D21*
X96520000Y-82550000D03*
D25*
X93980000Y-86360000D03*
D20*
X93980000Y-85560000D03*
D25*
X93980000Y-82550000D03*
D21*
X91440000Y-86360000D03*
D22*
X91440000Y-85560000D03*
D21*
X91440000Y-82550000D03*
X88900000Y-86360000D03*
D22*
X88900000Y-85560000D03*
D21*
X88900000Y-82550000D03*
G04 #@! TD*
M02*
