G04 #@! TF.GenerationSoftware,KiCad,Pcbnew,10.0.4*
G04 #@! TF.CreationDate,2026-07-13T15:55:33+09:00*
G04 #@! TF.ProjectId,____,d2b3eddc-2e6b-4696-9361-645f70636258,rev?*
G04 #@! TF.SameCoordinates,Original*
G04 #@! TF.FileFunction,Legend,Top*
G04 #@! TF.FilePolarity,Positive*
%FSLAX46Y46*%
G04 Gerber Fmt 4.6, Leading zero omitted, Abs format (unit mm)*
G04 Created by KiCad (PCBNEW 10.0.4) date 2026-07-13 15:55:33*
%MOMM*%
%LPD*%
G01*
G04 APERTURE LIST*
G04 Aperture macros list*
%AMRoundRect*
0 Rectangle with rounded corners*
0 $1 Rounding radius*
0 $2 $3 $4 $5 $6 $7 $8 $9 X,Y pos of 4 corners*
0 Add a 4 corners polygon primitive as box body*
4,1,4,$2,$3,$4,$5,$6,$7,$8,$9,$2,$3,0*
0 Add four circle primitives for the rounded corners*
1,1,$1+$1,$2,$3*
1,1,$1+$1,$4,$5*
1,1,$1+$1,$6,$7*
1,1,$1+$1,$8,$9*
0 Add four rect primitives between the rounded corners*
20,1,$1+$1,$2,$3,$4,$5,0*
20,1,$1+$1,$4,$5,$6,$7,0*
20,1,$1+$1,$6,$7,$8,$9,0*
20,1,$1+$1,$8,$9,$2,$3,0*%
%AMFreePoly0*
4,1,37,0.800000,0.796148,0.878414,0.796148,1.032228,0.765552,1.177117,0.705537,1.307515,0.618408,1.418408,0.507515,1.505537,0.377117,1.565552,0.232228,1.596148,0.078414,1.596148,-0.078414,1.565552,-0.232228,1.505537,-0.377117,1.418408,-0.507515,1.307515,-0.618408,1.177117,-0.705537,1.032228,-0.765552,0.878414,-0.796148,0.800000,-0.796148,0.800000,-0.800000,-1.400000,-0.800000,
-1.403843,-0.796157,-1.439018,-0.796157,-1.511114,-0.766294,-1.566294,-0.711114,-1.596157,-0.639018,-1.596157,-0.603843,-1.600000,-0.600000,-1.600000,0.600000,-1.596157,0.603843,-1.596157,0.639018,-1.566294,0.711114,-1.511114,0.766294,-1.439018,0.796157,-1.403843,0.796157,-1.400000,0.800000,0.800000,0.800000,0.800000,0.796148,0.800000,0.796148,$1*%
%AMFreePoly1*
4,1,37,0.603843,0.796157,0.639018,0.796157,0.711114,0.766294,0.766294,0.711114,0.796157,0.639018,0.796157,0.603843,0.800000,0.600000,0.800000,-0.600000,0.796157,-0.603843,0.796157,-0.639018,0.766294,-0.711114,0.711114,-0.766294,0.639018,-0.796157,0.603843,-0.796157,0.600000,-0.800000,0.000000,-0.800000,0.000000,-0.796148,-0.078414,-0.796148,-0.232228,-0.765552,-0.377117,-0.705537,
-0.507515,-0.618408,-0.618408,-0.507515,-0.705537,-0.377117,-0.765552,-0.232228,-0.796148,-0.078414,-0.796148,0.078414,-0.765552,0.232228,-0.705537,0.377117,-0.618408,0.507515,-0.507515,0.618408,-0.377117,0.705537,-0.232228,0.765552,-0.078414,0.796148,0.000000,0.796148,0.000000,0.800000,0.600000,0.800000,0.603843,0.796157,0.603843,0.796157,$1*%
%AMFreePoly2*
4,1,37,1.403843,0.796157,1.439018,0.796157,1.511114,0.766294,1.566294,0.711114,1.596157,0.639018,1.596157,0.603843,1.600000,0.600000,1.600000,-0.600000,1.596157,-0.603843,1.596157,-0.639018,1.566294,-0.711114,1.511114,-0.766294,1.439018,-0.796157,1.403843,-0.796157,1.400000,-0.800000,-0.800000,-0.800000,-0.800000,-0.796148,-0.878414,-0.796148,-1.032228,-0.765552,-1.177117,-0.705537,
-1.307515,-0.618408,-1.418408,-0.507515,-1.505537,-0.377117,-1.565552,-0.232228,-1.596148,-0.078414,-1.596148,0.078414,-1.565552,0.232228,-1.505537,0.377117,-1.418408,0.507515,-1.307515,0.618408,-1.177117,0.705537,-1.032228,0.765552,-0.878414,0.796148,-0.800000,0.796148,-0.800000,0.800000,1.400000,0.800000,1.403843,0.796157,1.403843,0.796157,$1*%
%AMFreePoly3*
4,1,37,0.000000,0.796148,0.078414,0.796148,0.232228,0.765552,0.377117,0.705537,0.507515,0.618408,0.618408,0.507515,0.705537,0.377117,0.765552,0.232228,0.796148,0.078414,0.796148,-0.078414,0.765552,-0.232228,0.705537,-0.377117,0.618408,-0.507515,0.507515,-0.618408,0.377117,-0.705537,0.232228,-0.765552,0.078414,-0.796148,0.000000,-0.796148,0.000000,-0.800000,-0.600000,-0.800000,
-0.603843,-0.796157,-0.639018,-0.796157,-0.711114,-0.766294,-0.766294,-0.711114,-0.796157,-0.639018,-0.796157,-0.603843,-0.800000,-0.600000,-0.800000,0.600000,-0.796157,0.603843,-0.796157,0.639018,-0.766294,0.711114,-0.711114,0.766294,-0.639018,0.796157,-0.603843,0.796157,-0.600000,0.800000,0.000000,0.800000,0.000000,0.796148,0.000000,0.796148,$1*%
G04 Aperture macros list end*
%ADD10C,0.100000*%
%ADD11C,0.150000*%
%ADD12C,0.101600*%
%ADD13C,0.076200*%
%ADD14C,0.120000*%
%ADD15C,0.127000*%
%ADD16C,0.200000*%
%ADD17C,0.066040*%
%ADD18C,0.254000*%
%ADD19R,1.090000X1.090000*%
%ADD20C,1.090000*%
%ADD21R,1.700000X1.700000*%
%ADD22C,1.700000*%
%ADD23RoundRect,0.102000X-0.565000X-0.565000X0.565000X-0.565000X0.565000X0.565000X-0.565000X0.565000X0*%
%ADD24C,1.334000*%
%ADD25O,1.998980X2.748280*%
%ADD26O,2.032000X1.016000*%
%ADD27C,1.143000*%
%ADD28RoundRect,0.200000X0.600000X-0.600000X0.600000X0.600000X-0.600000X0.600000X-0.600000X-0.600000X0*%
%ADD29FreePoly0,90.000000*%
%ADD30C,1.600000*%
%ADD31RoundRect,0.800000X0.000010X-0.800000X0.000010X0.800000X-0.000010X0.800000X-0.000010X-0.800000X0*%
%ADD32FreePoly1,90.000000*%
%ADD33FreePoly2,90.000000*%
%ADD34FreePoly3,90.000000*%
G04 APERTURE END LIST*
D10*
X154905419Y-120141904D02*
X155714942Y-120141904D01*
X155714942Y-120141904D02*
X155810180Y-120094285D01*
X155810180Y-120094285D02*
X155857800Y-120046666D01*
X155857800Y-120046666D02*
X155905419Y-119951428D01*
X155905419Y-119951428D02*
X155905419Y-119760952D01*
X155905419Y-119760952D02*
X155857800Y-119665714D01*
X155857800Y-119665714D02*
X155810180Y-119618095D01*
X155810180Y-119618095D02*
X155714942Y-119570476D01*
X155714942Y-119570476D02*
X154905419Y-119570476D01*
X155905419Y-118570476D02*
X155905419Y-119141904D01*
X155905419Y-118856190D02*
X154905419Y-118856190D01*
X154905419Y-118856190D02*
X155048276Y-118951428D01*
X155048276Y-118951428D02*
X155143514Y-119046666D01*
X155143514Y-119046666D02*
X155191133Y-119141904D01*
D11*
X145834819Y-107833333D02*
X146549104Y-107833333D01*
X146549104Y-107833333D02*
X146691961Y-107880952D01*
X146691961Y-107880952D02*
X146787200Y-107976190D01*
X146787200Y-107976190D02*
X146834819Y-108119047D01*
X146834819Y-108119047D02*
X146834819Y-108214285D01*
X146834819Y-106833333D02*
X146834819Y-107404761D01*
X146834819Y-107119047D02*
X145834819Y-107119047D01*
X145834819Y-107119047D02*
X145977676Y-107214285D01*
X145977676Y-107214285D02*
X146072914Y-107309523D01*
X146072914Y-107309523D02*
X146120533Y-107404761D01*
X142593095Y-109269819D02*
X142593095Y-110079342D01*
X142593095Y-110079342D02*
X142640714Y-110174580D01*
X142640714Y-110174580D02*
X142688333Y-110222200D01*
X142688333Y-110222200D02*
X142783571Y-110269819D01*
X142783571Y-110269819D02*
X142974047Y-110269819D01*
X142974047Y-110269819D02*
X143069285Y-110222200D01*
X143069285Y-110222200D02*
X143116904Y-110174580D01*
X143116904Y-110174580D02*
X143164523Y-110079342D01*
X143164523Y-110079342D02*
X143164523Y-109269819D01*
X143545476Y-109269819D02*
X144164523Y-109269819D01*
X144164523Y-109269819D02*
X143831190Y-109650771D01*
X143831190Y-109650771D02*
X143974047Y-109650771D01*
X143974047Y-109650771D02*
X144069285Y-109698390D01*
X144069285Y-109698390D02*
X144116904Y-109746009D01*
X144116904Y-109746009D02*
X144164523Y-109841247D01*
X144164523Y-109841247D02*
X144164523Y-110079342D01*
X144164523Y-110079342D02*
X144116904Y-110174580D01*
X144116904Y-110174580D02*
X144069285Y-110222200D01*
X144069285Y-110222200D02*
X143974047Y-110269819D01*
X143974047Y-110269819D02*
X143688333Y-110269819D01*
X143688333Y-110269819D02*
X143593095Y-110222200D01*
X143593095Y-110222200D02*
X143545476Y-110174580D01*
D12*
X164277485Y-96647433D02*
X164997152Y-96647433D01*
X164997152Y-96647433D02*
X165081818Y-96605100D01*
X165081818Y-96605100D02*
X165124152Y-96562766D01*
X165124152Y-96562766D02*
X165166485Y-96478100D01*
X165166485Y-96478100D02*
X165166485Y-96308766D01*
X165166485Y-96308766D02*
X165124152Y-96224100D01*
X165124152Y-96224100D02*
X165081818Y-96181766D01*
X165081818Y-96181766D02*
X164997152Y-96139433D01*
X164997152Y-96139433D02*
X164277485Y-96139433D01*
X164573818Y-95335100D02*
X165166485Y-95335100D01*
X164235152Y-95546767D02*
X164870152Y-95758433D01*
X164870152Y-95758433D02*
X164870152Y-95208100D01*
D13*
X154024021Y-98747770D02*
X154053049Y-98660685D01*
X154053049Y-98660685D02*
X154053049Y-98515542D01*
X154053049Y-98515542D02*
X154024021Y-98457485D01*
X154024021Y-98457485D02*
X153994992Y-98428456D01*
X153994992Y-98428456D02*
X153936935Y-98399427D01*
X153936935Y-98399427D02*
X153878878Y-98399427D01*
X153878878Y-98399427D02*
X153820821Y-98428456D01*
X153820821Y-98428456D02*
X153791792Y-98457485D01*
X153791792Y-98457485D02*
X153762763Y-98515542D01*
X153762763Y-98515542D02*
X153733735Y-98631656D01*
X153733735Y-98631656D02*
X153704706Y-98689713D01*
X153704706Y-98689713D02*
X153675678Y-98718742D01*
X153675678Y-98718742D02*
X153617621Y-98747770D01*
X153617621Y-98747770D02*
X153559563Y-98747770D01*
X153559563Y-98747770D02*
X153501506Y-98718742D01*
X153501506Y-98718742D02*
X153472478Y-98689713D01*
X153472478Y-98689713D02*
X153443449Y-98631656D01*
X153443449Y-98631656D02*
X153443449Y-98486513D01*
X153443449Y-98486513D02*
X153472478Y-98399427D01*
X154024021Y-97905942D02*
X154053049Y-97963999D01*
X154053049Y-97963999D02*
X154053049Y-98080114D01*
X154053049Y-98080114D02*
X154024021Y-98138171D01*
X154024021Y-98138171D02*
X153965963Y-98167199D01*
X153965963Y-98167199D02*
X153733735Y-98167199D01*
X153733735Y-98167199D02*
X153675678Y-98138171D01*
X153675678Y-98138171D02*
X153646649Y-98080114D01*
X153646649Y-98080114D02*
X153646649Y-97963999D01*
X153646649Y-97963999D02*
X153675678Y-97905942D01*
X153675678Y-97905942D02*
X153733735Y-97876914D01*
X153733735Y-97876914D02*
X153791792Y-97876914D01*
X153791792Y-97876914D02*
X153849849Y-98167199D01*
X154024021Y-97383428D02*
X154053049Y-97441485D01*
X154053049Y-97441485D02*
X154053049Y-97557600D01*
X154053049Y-97557600D02*
X154024021Y-97615657D01*
X154024021Y-97615657D02*
X153965963Y-97644685D01*
X153965963Y-97644685D02*
X153733735Y-97644685D01*
X153733735Y-97644685D02*
X153675678Y-97615657D01*
X153675678Y-97615657D02*
X153646649Y-97557600D01*
X153646649Y-97557600D02*
X153646649Y-97441485D01*
X153646649Y-97441485D02*
X153675678Y-97383428D01*
X153675678Y-97383428D02*
X153733735Y-97354400D01*
X153733735Y-97354400D02*
X153791792Y-97354400D01*
X153791792Y-97354400D02*
X153849849Y-97644685D01*
X154024021Y-96860914D02*
X154053049Y-96918971D01*
X154053049Y-96918971D02*
X154053049Y-97035086D01*
X154053049Y-97035086D02*
X154024021Y-97093143D01*
X154024021Y-97093143D02*
X153965963Y-97122171D01*
X153965963Y-97122171D02*
X153733735Y-97122171D01*
X153733735Y-97122171D02*
X153675678Y-97093143D01*
X153675678Y-97093143D02*
X153646649Y-97035086D01*
X153646649Y-97035086D02*
X153646649Y-96918971D01*
X153646649Y-96918971D02*
X153675678Y-96860914D01*
X153675678Y-96860914D02*
X153733735Y-96831886D01*
X153733735Y-96831886D02*
X153791792Y-96831886D01*
X153791792Y-96831886D02*
X153849849Y-97122171D01*
X154053049Y-96309372D02*
X153443449Y-96309372D01*
X154024021Y-96309372D02*
X154053049Y-96367429D01*
X154053049Y-96367429D02*
X154053049Y-96483543D01*
X154053049Y-96483543D02*
X154024021Y-96541600D01*
X154024021Y-96541600D02*
X153994992Y-96570629D01*
X153994992Y-96570629D02*
X153936935Y-96599657D01*
X153936935Y-96599657D02*
X153762763Y-96599657D01*
X153762763Y-96599657D02*
X153704706Y-96570629D01*
X153704706Y-96570629D02*
X153675678Y-96541600D01*
X153675678Y-96541600D02*
X153646649Y-96483543D01*
X153646649Y-96483543D02*
X153646649Y-96367429D01*
X153646649Y-96367429D02*
X153675678Y-96309372D01*
X153646649Y-95757829D02*
X154053049Y-95757829D01*
X153646649Y-96019086D02*
X153965963Y-96019086D01*
X153965963Y-96019086D02*
X154024021Y-95990057D01*
X154024021Y-95990057D02*
X154053049Y-95932000D01*
X154053049Y-95932000D02*
X154053049Y-95844914D01*
X154053049Y-95844914D02*
X154024021Y-95786857D01*
X154024021Y-95786857D02*
X153994992Y-95757829D01*
X154053049Y-95467543D02*
X153646649Y-95467543D01*
X153443449Y-95467543D02*
X153472478Y-95496571D01*
X153472478Y-95496571D02*
X153501506Y-95467543D01*
X153501506Y-95467543D02*
X153472478Y-95438514D01*
X153472478Y-95438514D02*
X153443449Y-95467543D01*
X153443449Y-95467543D02*
X153501506Y-95467543D01*
X153646649Y-95177257D02*
X154053049Y-95177257D01*
X153704706Y-95177257D02*
X153675678Y-95148228D01*
X153675678Y-95148228D02*
X153646649Y-95090171D01*
X153646649Y-95090171D02*
X153646649Y-95003085D01*
X153646649Y-95003085D02*
X153675678Y-94945028D01*
X153675678Y-94945028D02*
X153733735Y-94916000D01*
X153733735Y-94916000D02*
X154053049Y-94916000D01*
X154053049Y-94538628D02*
X154024021Y-94596685D01*
X154024021Y-94596685D02*
X153994992Y-94625714D01*
X153994992Y-94625714D02*
X153936935Y-94654742D01*
X153936935Y-94654742D02*
X153762763Y-94654742D01*
X153762763Y-94654742D02*
X153704706Y-94625714D01*
X153704706Y-94625714D02*
X153675678Y-94596685D01*
X153675678Y-94596685D02*
X153646649Y-94538628D01*
X153646649Y-94538628D02*
X153646649Y-94451542D01*
X153646649Y-94451542D02*
X153675678Y-94393485D01*
X153675678Y-94393485D02*
X153704706Y-94364457D01*
X153704706Y-94364457D02*
X153762763Y-94335428D01*
X153762763Y-94335428D02*
X153936935Y-94335428D01*
X153936935Y-94335428D02*
X153994992Y-94364457D01*
X153994992Y-94364457D02*
X154024021Y-94393485D01*
X154024021Y-94393485D02*
X154053049Y-94451542D01*
X154053049Y-94451542D02*
X154053049Y-94538628D01*
X153443449Y-94132228D02*
X154053049Y-93725828D01*
X153443449Y-93725828D02*
X154053049Y-94132228D01*
X154053049Y-93493600D02*
X153443449Y-93493600D01*
X153878878Y-93232342D02*
X153878878Y-92942057D01*
X154053049Y-93290399D02*
X153443449Y-93087199D01*
X153443449Y-93087199D02*
X154053049Y-92883999D01*
X153443449Y-92564685D02*
X153443449Y-92448571D01*
X153443449Y-92448571D02*
X153472478Y-92390514D01*
X153472478Y-92390514D02*
X153530535Y-92332457D01*
X153530535Y-92332457D02*
X153646649Y-92303428D01*
X153646649Y-92303428D02*
X153849849Y-92303428D01*
X153849849Y-92303428D02*
X153965963Y-92332457D01*
X153965963Y-92332457D02*
X154024021Y-92390514D01*
X154024021Y-92390514D02*
X154053049Y-92448571D01*
X154053049Y-92448571D02*
X154053049Y-92564685D01*
X154053049Y-92564685D02*
X154024021Y-92622743D01*
X154024021Y-92622743D02*
X153965963Y-92680800D01*
X153965963Y-92680800D02*
X153849849Y-92709828D01*
X153849849Y-92709828D02*
X153646649Y-92709828D01*
X153646649Y-92709828D02*
X153530535Y-92680800D01*
X153530535Y-92680800D02*
X153472478Y-92622743D01*
X153472478Y-92622743D02*
X153443449Y-92564685D01*
D10*
X125957419Y-122681904D02*
X126766942Y-122681904D01*
X126766942Y-122681904D02*
X126862180Y-122634285D01*
X126862180Y-122634285D02*
X126909800Y-122586666D01*
X126909800Y-122586666D02*
X126957419Y-122491428D01*
X126957419Y-122491428D02*
X126957419Y-122300952D01*
X126957419Y-122300952D02*
X126909800Y-122205714D01*
X126909800Y-122205714D02*
X126862180Y-122158095D01*
X126862180Y-122158095D02*
X126766942Y-122110476D01*
X126766942Y-122110476D02*
X125957419Y-122110476D01*
X125957419Y-121158095D02*
X125957419Y-121634285D01*
X125957419Y-121634285D02*
X126433609Y-121681904D01*
X126433609Y-121681904D02*
X126385990Y-121634285D01*
X126385990Y-121634285D02*
X126338371Y-121539047D01*
X126338371Y-121539047D02*
X126338371Y-121300952D01*
X126338371Y-121300952D02*
X126385990Y-121205714D01*
X126385990Y-121205714D02*
X126433609Y-121158095D01*
X126433609Y-121158095D02*
X126528847Y-121110476D01*
X126528847Y-121110476D02*
X126766942Y-121110476D01*
X126766942Y-121110476D02*
X126862180Y-121158095D01*
X126862180Y-121158095D02*
X126909800Y-121205714D01*
X126909800Y-121205714D02*
X126957419Y-121300952D01*
X126957419Y-121300952D02*
X126957419Y-121539047D01*
X126957419Y-121539047D02*
X126909800Y-121634285D01*
X126909800Y-121634285D02*
X126862180Y-121681904D01*
X111532580Y-119888095D02*
X110723057Y-119888095D01*
X110723057Y-119888095D02*
X110627819Y-119935714D01*
X110627819Y-119935714D02*
X110580200Y-119983333D01*
X110580200Y-119983333D02*
X110532580Y-120078571D01*
X110532580Y-120078571D02*
X110532580Y-120269047D01*
X110532580Y-120269047D02*
X110580200Y-120364285D01*
X110580200Y-120364285D02*
X110627819Y-120411904D01*
X110627819Y-120411904D02*
X110723057Y-120459523D01*
X110723057Y-120459523D02*
X111532580Y-120459523D01*
X111532580Y-121364285D02*
X111532580Y-121173809D01*
X111532580Y-121173809D02*
X111484961Y-121078571D01*
X111484961Y-121078571D02*
X111437342Y-121030952D01*
X111437342Y-121030952D02*
X111294485Y-120935714D01*
X111294485Y-120935714D02*
X111104009Y-120888095D01*
X111104009Y-120888095D02*
X110723057Y-120888095D01*
X110723057Y-120888095D02*
X110627819Y-120935714D01*
X110627819Y-120935714D02*
X110580200Y-120983333D01*
X110580200Y-120983333D02*
X110532580Y-121078571D01*
X110532580Y-121078571D02*
X110532580Y-121269047D01*
X110532580Y-121269047D02*
X110580200Y-121364285D01*
X110580200Y-121364285D02*
X110627819Y-121411904D01*
X110627819Y-121411904D02*
X110723057Y-121459523D01*
X110723057Y-121459523D02*
X110961152Y-121459523D01*
X110961152Y-121459523D02*
X111056390Y-121411904D01*
X111056390Y-121411904D02*
X111104009Y-121364285D01*
X111104009Y-121364285D02*
X111151628Y-121269047D01*
X111151628Y-121269047D02*
X111151628Y-121078571D01*
X111151628Y-121078571D02*
X111104009Y-120983333D01*
X111104009Y-120983333D02*
X111056390Y-120935714D01*
X111056390Y-120935714D02*
X110961152Y-120888095D01*
X108966191Y-126627419D02*
X109632857Y-126627419D01*
X109632857Y-126627419D02*
X109204286Y-127627419D01*
X110013810Y-127532180D02*
X110061429Y-127579800D01*
X110061429Y-127579800D02*
X110013810Y-127627419D01*
X110013810Y-127627419D02*
X109966191Y-127579800D01*
X109966191Y-127579800D02*
X110013810Y-127532180D01*
X110013810Y-127532180D02*
X110013810Y-127627419D01*
X110918571Y-126627419D02*
X110728095Y-126627419D01*
X110728095Y-126627419D02*
X110632857Y-126675038D01*
X110632857Y-126675038D02*
X110585238Y-126722657D01*
X110585238Y-126722657D02*
X110490000Y-126865514D01*
X110490000Y-126865514D02*
X110442381Y-127055990D01*
X110442381Y-127055990D02*
X110442381Y-127436942D01*
X110442381Y-127436942D02*
X110490000Y-127532180D01*
X110490000Y-127532180D02*
X110537619Y-127579800D01*
X110537619Y-127579800D02*
X110632857Y-127627419D01*
X110632857Y-127627419D02*
X110823333Y-127627419D01*
X110823333Y-127627419D02*
X110918571Y-127579800D01*
X110918571Y-127579800D02*
X110966190Y-127532180D01*
X110966190Y-127532180D02*
X111013809Y-127436942D01*
X111013809Y-127436942D02*
X111013809Y-127198847D01*
X111013809Y-127198847D02*
X110966190Y-127103609D01*
X110966190Y-127103609D02*
X110918571Y-127055990D01*
X110918571Y-127055990D02*
X110823333Y-127008371D01*
X110823333Y-127008371D02*
X110632857Y-127008371D01*
X110632857Y-127008371D02*
X110537619Y-127055990D01*
X110537619Y-127055990D02*
X110490000Y-127103609D01*
X110490000Y-127103609D02*
X110442381Y-127198847D01*
X111394762Y-126722657D02*
X111442381Y-126675038D01*
X111442381Y-126675038D02*
X111537619Y-126627419D01*
X111537619Y-126627419D02*
X111775714Y-126627419D01*
X111775714Y-126627419D02*
X111870952Y-126675038D01*
X111870952Y-126675038D02*
X111918571Y-126722657D01*
X111918571Y-126722657D02*
X111966190Y-126817895D01*
X111966190Y-126817895D02*
X111966190Y-126913133D01*
X111966190Y-126913133D02*
X111918571Y-127055990D01*
X111918571Y-127055990D02*
X111347143Y-127627419D01*
X111347143Y-127627419D02*
X111966190Y-127627419D01*
X95977419Y-122531904D02*
X96786942Y-122531904D01*
X96786942Y-122531904D02*
X96882180Y-122484285D01*
X96882180Y-122484285D02*
X96929800Y-122436666D01*
X96929800Y-122436666D02*
X96977419Y-122341428D01*
X96977419Y-122341428D02*
X96977419Y-122150952D01*
X96977419Y-122150952D02*
X96929800Y-122055714D01*
X96929800Y-122055714D02*
X96882180Y-122008095D01*
X96882180Y-122008095D02*
X96786942Y-121960476D01*
X96786942Y-121960476D02*
X95977419Y-121960476D01*
X96072657Y-121531904D02*
X96025038Y-121484285D01*
X96025038Y-121484285D02*
X95977419Y-121389047D01*
X95977419Y-121389047D02*
X95977419Y-121150952D01*
X95977419Y-121150952D02*
X96025038Y-121055714D01*
X96025038Y-121055714D02*
X96072657Y-121008095D01*
X96072657Y-121008095D02*
X96167895Y-120960476D01*
X96167895Y-120960476D02*
X96263133Y-120960476D01*
X96263133Y-120960476D02*
X96405990Y-121008095D01*
X96405990Y-121008095D02*
X96977419Y-121579523D01*
X96977419Y-121579523D02*
X96977419Y-120960476D01*
X139871704Y-82794285D02*
X139871704Y-82318095D01*
X140157419Y-82889523D02*
X139157419Y-82556190D01*
X139157419Y-82556190D02*
X140157419Y-82222857D01*
X140157419Y-81365714D02*
X140157419Y-81937142D01*
X140157419Y-81651428D02*
X139157419Y-81651428D01*
X139157419Y-81651428D02*
X139300276Y-81746666D01*
X139300276Y-81746666D02*
X139395514Y-81841904D01*
X139395514Y-81841904D02*
X139443133Y-81937142D01*
G04 #@! TO.C,J1*
D14*
X145380000Y-106120000D02*
X145380000Y-107500000D01*
X144000000Y-106120000D02*
X145380000Y-106120000D01*
X142730000Y-106120000D02*
X140080000Y-106120000D01*
X142730000Y-106120000D02*
X142730000Y-108880000D01*
X140080000Y-106120000D02*
X140080000Y-108880000D01*
X142730000Y-108880000D02*
X140080000Y-108880000D01*
G04 #@! TO.C,U3*
D15*
X141605000Y-110875000D02*
X147955000Y-110875000D01*
X141605000Y-130425000D02*
X147955000Y-130425000D01*
D16*
X139845000Y-111760000D02*
G75*
G02*
X139645000Y-111760000I-100000J0D01*
G01*
X139645000Y-111760000D02*
G75*
G02*
X139845000Y-111760000I100000J0D01*
G01*
G04 #@! TO.C,U4*
D15*
X142980000Y-86635600D02*
X142980000Y-104433380D01*
X142980000Y-104433380D02*
X163978180Y-104433380D01*
D17*
X143615000Y-92985600D02*
X143615000Y-98700600D01*
X143615000Y-92985600D02*
X146155000Y-92985600D01*
X143615000Y-98700600D02*
X146155000Y-98700600D01*
X146155000Y-92985600D02*
X146155000Y-98700600D01*
X157328460Y-90318600D02*
X157328460Y-92096600D01*
X157328460Y-90318600D02*
X159998000Y-90318600D01*
X157328460Y-92096600D02*
X159998000Y-92096600D01*
X157328460Y-98954600D02*
X157328460Y-100732600D01*
X157328460Y-98954600D02*
X159998000Y-98954600D01*
X157328460Y-100732600D02*
X159998000Y-100732600D01*
D15*
X158049820Y-91029800D02*
X165403120Y-91029800D01*
X158049820Y-100029020D02*
X158049820Y-91029800D01*
D17*
X159998000Y-90318600D02*
X159998000Y-92096600D01*
X159998000Y-98954600D02*
X159998000Y-100732600D01*
X160760000Y-92985600D02*
X160760000Y-98065600D01*
X160760000Y-92985600D02*
X163300000Y-92985600D01*
X160760000Y-98065600D02*
X163300000Y-98065600D01*
X161395000Y-90318600D02*
X161395000Y-92096600D01*
X161395000Y-90318600D02*
X164062000Y-90318600D01*
X161395000Y-92096600D02*
X164062000Y-92096600D01*
X161395000Y-98954600D02*
X161395000Y-100732600D01*
X161395000Y-98954600D02*
X164062000Y-98954600D01*
X161395000Y-100732600D02*
X164062000Y-100732600D01*
X163300000Y-92985600D02*
X163300000Y-98065600D01*
D15*
X163307620Y-86635600D02*
X142980000Y-86635600D01*
X163978180Y-87306160D02*
X163307620Y-86635600D01*
X163978180Y-104433380D02*
X163978180Y-87306160D01*
D17*
X164062000Y-90318600D02*
X164062000Y-92096600D01*
X164062000Y-98954600D02*
X164062000Y-100732600D01*
D15*
X165403120Y-91034880D02*
X165403120Y-100029020D01*
X165403120Y-100029020D02*
X158049820Y-100029020D01*
D18*
X161268000Y-85746600D02*
G75*
G02*
X161014000Y-85746600I-127000J0D01*
G01*
X161014000Y-85746600D02*
G75*
G02*
X161268000Y-85746600I127000J0D01*
G01*
D10*
X108966191Y-126627419D02*
X109632857Y-126627419D01*
X109632857Y-126627419D02*
X109204286Y-127627419D01*
X110013810Y-127532180D02*
X110061429Y-127579800D01*
X110061429Y-127579800D02*
X110013810Y-127627419D01*
X110013810Y-127627419D02*
X109966191Y-127579800D01*
X109966191Y-127579800D02*
X110013810Y-127532180D01*
X110013810Y-127532180D02*
X110013810Y-127627419D01*
X110918571Y-126627419D02*
X110728095Y-126627419D01*
X110728095Y-126627419D02*
X110632857Y-126675038D01*
X110632857Y-126675038D02*
X110585238Y-126722657D01*
X110585238Y-126722657D02*
X110490000Y-126865514D01*
X110490000Y-126865514D02*
X110442381Y-127055990D01*
X110442381Y-127055990D02*
X110442381Y-127436942D01*
X110442381Y-127436942D02*
X110490000Y-127532180D01*
X110490000Y-127532180D02*
X110537619Y-127579800D01*
X110537619Y-127579800D02*
X110632857Y-127627419D01*
X110632857Y-127627419D02*
X110823333Y-127627419D01*
X110823333Y-127627419D02*
X110918571Y-127579800D01*
X110918571Y-127579800D02*
X110966190Y-127532180D01*
X110966190Y-127532180D02*
X111013809Y-127436942D01*
X111013809Y-127436942D02*
X111013809Y-127198847D01*
X111013809Y-127198847D02*
X110966190Y-127103609D01*
X110966190Y-127103609D02*
X110918571Y-127055990D01*
X110918571Y-127055990D02*
X110823333Y-127008371D01*
X110823333Y-127008371D02*
X110632857Y-127008371D01*
X110632857Y-127008371D02*
X110537619Y-127055990D01*
X110537619Y-127055990D02*
X110490000Y-127103609D01*
X110490000Y-127103609D02*
X110442381Y-127198847D01*
X111394762Y-126722657D02*
X111442381Y-126675038D01*
X111442381Y-126675038D02*
X111537619Y-126627419D01*
X111537619Y-126627419D02*
X111775714Y-126627419D01*
X111775714Y-126627419D02*
X111870952Y-126675038D01*
X111870952Y-126675038D02*
X111918571Y-126722657D01*
X111918571Y-126722657D02*
X111966190Y-126817895D01*
X111966190Y-126817895D02*
X111966190Y-126913133D01*
X111966190Y-126913133D02*
X111918571Y-127055990D01*
X111918571Y-127055990D02*
X111347143Y-127627419D01*
X111347143Y-127627419D02*
X111966190Y-127627419D01*
X106680000Y-125360000D02*
X106680000Y-128856420D01*
X114300000Y-128856420D02*
X114300000Y-125360000D01*
X106680000Y-128270000D02*
X114300000Y-128270000D01*
X106680000Y-128270000D02*
X107806504Y-127683579D01*
X106680000Y-128270000D02*
X107806504Y-128856421D01*
X114300000Y-128270000D02*
X113173496Y-128856421D01*
X114300000Y-128270000D02*
X113173496Y-127683579D01*
G04 #@! TO.C,A1*
D14*
X87420000Y-85250000D02*
X87420000Y-87740000D01*
X87420000Y-87740000D02*
X88333520Y-87740000D01*
X87420000Y-102760000D02*
X88333520Y-102760000D01*
X87420000Y-105250000D02*
X87420000Y-102760000D01*
X87840063Y-84980000D02*
X87483000Y-84980000D01*
X87840063Y-105520000D02*
X87483000Y-105520000D01*
X89960000Y-84980000D02*
X90380000Y-84980000D01*
X89960000Y-105520000D02*
X90380000Y-105520000D01*
X90726480Y-87740000D02*
X135333520Y-87740000D01*
X90726480Y-102760000D02*
X135333520Y-102760000D01*
X92500000Y-84980000D02*
X92920000Y-84980000D01*
X92500000Y-105520000D02*
X92920000Y-105520000D01*
X95040000Y-84980000D02*
X95460000Y-84980000D01*
X95040000Y-105520000D02*
X95460000Y-105520000D01*
X97580000Y-84980000D02*
X98000000Y-84980000D01*
X97580000Y-105520000D02*
X98000000Y-105520000D01*
X100120000Y-84980000D02*
X100540000Y-84980000D01*
X100120000Y-105520000D02*
X100540000Y-105520000D01*
X102660000Y-84980000D02*
X103080000Y-84980000D01*
X102660000Y-105520000D02*
X103080000Y-105520000D01*
X105200000Y-84980000D02*
X105620000Y-84980000D01*
X105200000Y-105520000D02*
X105620000Y-105520000D01*
X107740000Y-84980000D02*
X108160000Y-84980000D01*
X107740000Y-105520000D02*
X108160000Y-105520000D01*
X110280000Y-84980000D02*
X110700000Y-84980000D01*
X110280000Y-105520000D02*
X110700000Y-105520000D01*
X112820000Y-84980000D02*
X113240000Y-84980000D01*
X112820000Y-105520000D02*
X113240000Y-105520000D01*
X115360000Y-84980000D02*
X115780000Y-84980000D01*
X115360000Y-105520000D02*
X115780000Y-105520000D01*
X117900000Y-84980000D02*
X118320000Y-84980000D01*
X117900000Y-105520000D02*
X118320000Y-105520000D01*
X120440000Y-84980000D02*
X120860000Y-84980000D01*
X120440000Y-105520000D02*
X120860000Y-105520000D01*
X122980000Y-84980000D02*
X123400000Y-84980000D01*
X122980000Y-105520000D02*
X123400000Y-105520000D01*
X125520000Y-84980000D02*
X125940000Y-84980000D01*
X125520000Y-105520000D02*
X125940000Y-105520000D01*
X128060000Y-84980000D02*
X128480000Y-84980000D01*
X128060000Y-105520000D02*
X128480000Y-105520000D01*
X130600000Y-84980000D02*
X131020000Y-84980000D01*
X130600000Y-105520000D02*
X131020000Y-105520000D01*
X133140000Y-84980000D02*
X133560000Y-84980000D01*
X133140000Y-105520000D02*
X133560000Y-105520000D01*
X135680000Y-84980000D02*
X136100000Y-84980000D01*
X135680000Y-105520000D02*
X136100000Y-105520000D01*
X137726480Y-87740000D02*
X138640000Y-87740000D01*
X137726480Y-102760000D02*
X138640000Y-102760000D01*
X138219937Y-84980000D02*
X138577000Y-84980000D01*
X138219937Y-105520000D02*
X138577000Y-105520000D01*
G04 #@! TD*
%LPC*%
D19*
G04 #@! TO.C,U1*
X157520000Y-111760000D03*
D20*
X157520000Y-114300000D03*
X157520000Y-116840000D03*
X157520000Y-119380000D03*
X157520000Y-121920000D03*
X157520000Y-124460000D03*
X157480000Y-127000000D03*
X157480000Y-129540000D03*
X160060000Y-111760000D03*
X160060000Y-114300000D03*
X160060000Y-116840000D03*
X160060000Y-119380000D03*
X160060000Y-121920000D03*
X160020000Y-124460000D03*
X160020000Y-127000000D03*
X160020000Y-129540000D03*
X162560000Y-111760000D03*
X162560000Y-114300000D03*
X162560000Y-116840000D03*
X162560000Y-119380000D03*
X162560000Y-121920000D03*
X162560000Y-124460000D03*
X162560000Y-127000000D03*
X162560000Y-129540000D03*
G04 #@! TD*
D21*
G04 #@! TO.C,J1*
X144000000Y-107500000D03*
D22*
X141460000Y-107500000D03*
G04 #@! TD*
D23*
G04 #@! TO.C,U3*
X140810000Y-111760000D03*
D24*
X140810000Y-114300000D03*
X140810000Y-116840000D03*
X140810000Y-119380000D03*
X140810000Y-121920000D03*
X140810000Y-124460000D03*
X140810000Y-127000000D03*
X140810000Y-129540000D03*
X148750000Y-129540000D03*
X148750000Y-127000000D03*
X148750000Y-124460000D03*
X148750000Y-121920000D03*
X148750000Y-119380000D03*
X148750000Y-116840000D03*
X148750000Y-114300000D03*
X148750000Y-111760000D03*
G04 #@! TD*
D25*
G04 #@! TO.C,U4*
X161097820Y-87468720D03*
X158557820Y-87468720D03*
X156017820Y-87468720D03*
X153477820Y-87468720D03*
X150937820Y-87468720D03*
X148397820Y-87468720D03*
X145857820Y-87468720D03*
X145857820Y-103633280D03*
X148397820Y-103633280D03*
X150937820Y-103633280D03*
X153477820Y-103633280D03*
X156017820Y-103633280D03*
X158557820Y-103633280D03*
X161097820Y-103633280D03*
D26*
X144780000Y-94335600D03*
X144780000Y-96885600D03*
D27*
X161784187Y-94334403D03*
X161784187Y-96874403D03*
X159244187Y-94334403D03*
X159244187Y-96874403D03*
G04 #@! TD*
D19*
G04 #@! TO.C,U5*
X127000000Y-115570000D03*
D20*
X127000000Y-118110000D03*
X127000000Y-120650000D03*
X127000000Y-123190000D03*
X127000000Y-125730000D03*
X127000000Y-128270000D03*
G04 #@! TD*
D19*
G04 #@! TO.C,U6*
X114300000Y-124460000D03*
D20*
X114300000Y-121920000D03*
X114300000Y-119380000D03*
X114300000Y-116840000D03*
X106680000Y-116840000D03*
X106680000Y-119380000D03*
X106680000Y-121920000D03*
D19*
X106680000Y-124460000D03*
G04 #@! TD*
D20*
G04 #@! TO.C,U2*
X93980000Y-130660000D03*
X93980000Y-128120000D03*
X93980000Y-125580000D03*
X93980000Y-123040000D03*
X93980000Y-120500000D03*
X93980000Y-117960000D03*
X93980000Y-115420000D03*
X93980000Y-112880000D03*
X91440000Y-130660000D03*
X91440000Y-128120000D03*
X91440000Y-125580000D03*
X91480000Y-123040000D03*
X91480000Y-120500000D03*
X91480000Y-117960000D03*
X91480000Y-115420000D03*
X91480000Y-112880000D03*
X88900000Y-130660000D03*
X88900000Y-128120000D03*
X88940000Y-125580000D03*
X88940000Y-123040000D03*
X88940000Y-120500000D03*
X88940000Y-117960000D03*
X88940000Y-115420000D03*
D19*
X88940000Y-112880000D03*
G04 #@! TD*
D28*
G04 #@! TO.C,A1*
X88900000Y-107950000D03*
D29*
X88900000Y-104940000D03*
D28*
X88900000Y-104140000D03*
D30*
X91440000Y-107950000D03*
D31*
X91440000Y-104940000D03*
D30*
X91440000Y-104140000D03*
D32*
X93980000Y-107950000D03*
D33*
X93980000Y-104940000D03*
D32*
X93980000Y-104140000D03*
D30*
X96520000Y-107950000D03*
D31*
X96520000Y-104940000D03*
D30*
X96520000Y-104140000D03*
X99060000Y-107950000D03*
D31*
X99060000Y-104940000D03*
D30*
X99060000Y-104140000D03*
X101600000Y-107950000D03*
D31*
X101600000Y-104940000D03*
D30*
X101600000Y-104140000D03*
X104140000Y-107950000D03*
D31*
X104140000Y-104940000D03*
D30*
X104140000Y-104140000D03*
D32*
X106680000Y-107950000D03*
D33*
X106680000Y-104940000D03*
D32*
X106680000Y-104140000D03*
D30*
X109220000Y-107950000D03*
D31*
X109220000Y-104940000D03*
D30*
X109220000Y-104140000D03*
X111760000Y-107950000D03*
D31*
X111760000Y-104940000D03*
D30*
X111760000Y-104140000D03*
X114300000Y-107950000D03*
D31*
X114300000Y-104940000D03*
D30*
X114300000Y-104140000D03*
X116840000Y-107950000D03*
D31*
X116840000Y-104940000D03*
D30*
X116840000Y-104140000D03*
D32*
X119380000Y-107950000D03*
D33*
X119380000Y-104940000D03*
D32*
X119380000Y-104140000D03*
D30*
X121920000Y-107950000D03*
D31*
X121920000Y-104940000D03*
D30*
X121920000Y-104140000D03*
X124460000Y-107950000D03*
D31*
X124460000Y-104940000D03*
D30*
X124460000Y-104140000D03*
X127000000Y-107950000D03*
D31*
X127000000Y-104940000D03*
D30*
X127000000Y-104140000D03*
X129540000Y-107950000D03*
D31*
X129540000Y-104940000D03*
D30*
X129540000Y-104140000D03*
D32*
X132080000Y-107950000D03*
D33*
X132080000Y-104940000D03*
D32*
X132080000Y-104140000D03*
D30*
X134620000Y-107950000D03*
D31*
X134620000Y-104940000D03*
D30*
X134620000Y-104140000D03*
X137160000Y-107950000D03*
D31*
X137160000Y-104940000D03*
D30*
X137160000Y-104140000D03*
X137160000Y-86360000D03*
D31*
X137160000Y-85560000D03*
D30*
X137160000Y-82550000D03*
X134620000Y-86360000D03*
D31*
X134620000Y-85560000D03*
D30*
X134620000Y-82550000D03*
D34*
X132080000Y-86360000D03*
D29*
X132080000Y-85560000D03*
D34*
X132080000Y-82550000D03*
D30*
X129540000Y-86360000D03*
D31*
X129540000Y-85560000D03*
D30*
X129540000Y-82550000D03*
X127000000Y-86360000D03*
D31*
X127000000Y-85560000D03*
D30*
X127000000Y-82550000D03*
X124460000Y-86360000D03*
D31*
X124460000Y-85560000D03*
D30*
X124460000Y-82550000D03*
X121920000Y-86360000D03*
D31*
X121920000Y-85560000D03*
D30*
X121920000Y-82550000D03*
D34*
X119380000Y-86360000D03*
D29*
X119380000Y-85560000D03*
D34*
X119380000Y-82550000D03*
D30*
X116840000Y-86360000D03*
D31*
X116840000Y-85560000D03*
D30*
X116840000Y-82550000D03*
X114300000Y-86360000D03*
D31*
X114300000Y-85560000D03*
D30*
X114300000Y-82550000D03*
X111760000Y-86360000D03*
D31*
X111760000Y-85560000D03*
D30*
X111760000Y-82550000D03*
X109220000Y-86360000D03*
D31*
X109220000Y-85560000D03*
D30*
X109220000Y-82550000D03*
D34*
X106680000Y-86360000D03*
D29*
X106680000Y-85560000D03*
D34*
X106680000Y-82550000D03*
D30*
X104140000Y-86360000D03*
D31*
X104140000Y-85560000D03*
D30*
X104140000Y-82550000D03*
X101600000Y-86360000D03*
D31*
X101600000Y-85560000D03*
D30*
X101600000Y-82550000D03*
X99060000Y-86360000D03*
D31*
X99060000Y-85560000D03*
D30*
X99060000Y-82550000D03*
X96520000Y-86360000D03*
D31*
X96520000Y-85560000D03*
D30*
X96520000Y-82550000D03*
D34*
X93980000Y-86360000D03*
D29*
X93980000Y-85560000D03*
D34*
X93980000Y-82550000D03*
D30*
X91440000Y-86360000D03*
D31*
X91440000Y-85560000D03*
D30*
X91440000Y-82550000D03*
X88900000Y-86360000D03*
D31*
X88900000Y-85560000D03*
D30*
X88900000Y-82550000D03*
G04 #@! TD*
%LPD*%
M02*
